<svg xmlns="http://www.w3.org/2000/svg" viewBox="0 0 100 100" width="100" height="100" role="img" aria-label="JV WEB STUDIO">
  <defs>
    <linearGradient id="fg" x1="0" y1="0" x2="1" y2="1">
      <stop offset="0%" stop-color="#F4D88A"/>
      <stop offset="50%" stop-color="#E5C76B"/>
      <stop offset="100%" stop-color="#C9A24B"/>
    </linearGradient>
  </defs>
  <g fill="none" stroke="url(#fg)" stroke-width="4.5" stroke-linecap="round" stroke-linejoin="round">
    <!-- 5 pétalas em torno do centro -->
    <g>
      <path d="M50 50 C 50 30, 38 22, 50 12 C 62 22, 50 30, 50 50 Z"/>
      <path d="M50 50 C 50 30, 38 22, 50 12 C 62 22, 50 30, 50 50 Z" transform="rotate(72 50 50)"/>
      <path d="M50 50 C 50 30, 38 22, 50 12 C 62 22, 50 30, 50 50 Z" transform="rotate(144 50 50)"/>
      <path d="M50 50 C 50 30, 38 22, 50 12 C 62 22, 50 30, 50 50 Z" transform="rotate(216 50 50)"/>
      <path d="M50 50 C 50 30, 38 22, 50 12 C 62 22, 50 30, 50 50 Z" transform="rotate(288 50 50)"/>
    </g>
    <circle cx="50" cy="50" r="4" fill="url(#fg)" stroke="none"/>
  </g>
</svg>
