<svg xmlns="http://www.w3.org/2000/svg" viewBox="0 0 1200 630" width="1200" height="630">
  <defs>
    <linearGradient id="bg" x1="0" y1="0" x2="1" y2="1">
      <stop offset="0%" stop-color="#0a0a0a"/><stop offset="100%" stop-color="#050505"/>
    </linearGradient>
    <linearGradient id="g" x1="0" y1="0" x2="1" y2="0">
      <stop offset="0%" stop-color="#f4d88a"/><stop offset="50%" stop-color="#e5c76b"/><stop offset="100%" stop-color="#c9a24b"/>
    </linearGradient>
  </defs>
  <rect width="1200" height="630" fill="url(#bg)"/>
  <circle cx="1050" cy="120" r="320" fill="url(#g)" opacity="0.06"/>
  <g transform="translate(90,150)">
    <rect x="0" y="0" width="120" height="120" rx="16" fill="#0a0a0a" stroke="url(#g)" stroke-width="2.5"/>
    <g transform="translate(60,60) scale(0.55)" fill="url(#g)">
      <path d="M-70,-55 L-20,-55 L-20,30 Q-20,55 -45,55 Q-72,55 -78,38 L-58,30 Q-55,42 -45,42 Q-32,42 -32,30 L-32,-38 L-70,-38 Z"/>
      <path d="M-5,-55 L17,-55 L36,30 L55,-55 L75,-55 L48,55 L24,55 Z"/>
    </g>
  </g>
  <text x="90" y="380" font-family="'Space Grotesk',Arial,sans-serif" font-size="76" font-weight="800" fill="#ffffff">Soluções digitais</text>
  <text x="90" y="466" font-family="'Space Grotesk',Arial,sans-serif" font-size="76" font-weight="800" fill="url(#g)">construídas para escalar.</text>
  <text x="92" y="540" font-family="Arial,sans-serif" font-size="24" letter-spacing="4" fill="#888">JV WEB STUDIO · SITES · SISTEMAS WEB · AUTOMAÇÕES N8N</text>
</svg>
